<svg width="20" height="20" viewBox="0 0 20 20" fill="none" xmlns="http://www.w3.org/2000/svg">
<path d="M15.2075 17.4663V18H15.7412V17.4663H15.2075ZM4.53369 17.4663H4V18H4.53369V17.4663ZM12.539 5.73369C12.5389 6.08397 12.4698 6.4308 12.3356 6.75437C12.2014 7.07794 12.0048 7.37191 11.757 7.6195C11.5092 7.86709 11.2151 8.06345 10.8914 8.19737C10.5677 8.33129 10.2209 8.40014 9.87058 8.4V9.46738C11.9338 9.46738 13.6064 7.79586 13.6064 5.73369H12.539ZM9.87058 8.4C9.5203 8.40014 9.17341 8.33129 8.84974 8.19737C8.52606 8.06345 8.23193 7.86709 7.98415 7.6195C7.73636 7.37191 7.53976 7.07794 7.40559 6.75437C7.27141 6.4308 7.20228 6.08397 7.20213 5.73369H6.13476C6.1349 6.22414 6.23164 6.70977 6.41946 7.16284C6.60728 7.61591 6.88249 8.02754 7.2294 8.37425C7.5763 8.72095 7.98809 8.99594 8.44127 9.1835C8.89444 9.37106 9.38013 9.46752 9.87058 9.46738V8.4ZM7.20213 5.73369C7.20228 5.3834 7.27141 5.03658 7.40559 4.71301C7.53976 4.38944 7.73636 4.09547 7.98415 3.84788C8.23193 3.60029 8.52606 3.40393 8.84974 3.27001C9.17341 3.13609 9.5203 3.06724 9.87058 3.06738V2C9.38013 1.99986 8.89444 2.09632 8.44127 2.28388C7.98809 2.47144 7.5763 2.74643 7.2294 3.09313C6.88249 3.43984 6.60728 3.85147 6.41946 4.30454C6.23164 4.75761 6.1349 5.24323 6.13476 5.73369H7.20213ZM9.87058 3.06738C11.3446 3.06738 12.539 4.26177 12.539 5.73369H13.6064C13.6063 5.24323 13.5095 4.75761 13.3217 4.30454C13.1339 3.85147 12.8587 3.43984 12.5118 3.09313C12.1649 2.74643 11.7531 2.47144 11.2999 2.28388C10.8467 2.09632 10.361 1.99986 9.87058 2V3.06738ZM15.2075 16.9326H4.53369V18H15.2075V16.9326ZM5.06738 17.4663V17.4631V17.4588V17.4535V17.4492V17.445V17.4407V17.4364V17.4322V17.4268V17.4225V17.4183V17.414V17.4097V17.4055V17.4012V17.3959V17.3916V17.3873V17.3831V17.3788V17.3745V17.3692V17.3649V17.3606V17.3564V17.3521V17.3478V17.3436V17.3393V17.334V17.3297V17.3254V17.3211V17.3169V17.3126V17.3083V17.303V17.2987V17.2945V17.2902V17.2859V17.2817V17.2774V17.2731V17.2688V17.2635V17.2592V17.255V17.2507V17.2464V17.2422V17.2379V17.2326V17.2283V17.224V17.2197V17.2155V17.2112V17.2069V17.2027V17.1984V17.1931V17.1888V17.1845V17.1803V17.176V17.1717V17.1674V17.1632V17.1589V17.1546V17.1493V17.145V17.1408V17.1365V17.1322V17.128V17.1237V17.1194V17.1151V17.1109V17.1055V17.1013V17.097V17.0927V17.0885V17.0842V17.0799V17.0757V17.0714V17.0671V17.0628V17.0586V17.0532V17.049V17.0447V17.0404V17.0362V17.0319V17.0276V17.0233V17.0191V17.0148V17.0105V17.0063V17.002V16.9967V16.9924V16.9881V16.9839V16.9796V16.9753V16.971V16.9668V16.9625V16.9582V16.954V16.9497V16.9454V16.9412V16.9369V16.9326V16.9273V16.9241V16.9187V16.9145V16.9102V16.9059V16.9017V16.8974V16.8931V16.8889V16.8846V16.8803V16.8761V16.8718V16.8675V16.8632V16.859V16.8547V16.8504V16.8462V16.8419V16.8376V16.8334V16.8291V16.8237V16.8195V16.8152V16.8109V16.8067V16.8024V16.7981V16.7939V16.7896V16.7853V16.7811V16.7768V16.7725V16.7682V16.764V16.7597V16.7554V16.7512V16.7469V16.7426V16.7384V16.7341V16.7298V16.7256V16.7213V16.717V16.7127V16.7085V16.7042V16.6999V16.6957V16.6914V16.6871V16.6829V16.6786V16.6743V16.67V16.6658V16.6615V16.6572V16.653V16.6487V16.6444V16.6402V16.6359V16.6316V16.6274V16.6231V16.6188V16.6145V16.6103V16.606V16.6017V16.5975V16.5932V16.5889V16.5847V16.5815V16.5761V16.5718V16.5686V16.5644V16.5601V16.5558V16.5516V16.5473V16.543V16.5388V16.5345V16.5302V16.526V16.5217V16.5174V16.5131V16.5089V16.5046V16.5003V16.4961V16.4918V16.4875V16.4833V16.479V16.4758V16.4715V16.4672V16.463V16.4587V16.4544V16.4502V16.4459V16.4416V16.4374V16.4331V16.4288V16.4246V16.4203V16.416V16.4117V16.4075V16.4043V16.4V16.3957V16.3915V16.3872V16.3829V16.3787V16.3744V16.3701V16.3658V16.3616V16.3573V16.3541V16.3498V16.3456V16.3413V16.337V16.3328V16.3285V16.3242V16.3199V16.3157V16.3114V16.3082V16.3039V16.2997V16.2954V16.2911V16.2869V16.2826V16.2783V16.274V16.2708V16.2666V16.2623V16.258V16.2538V16.2495V16.2452V16.241V16.2367V16.2335V16.2292V16.2249V16.2207V16.2164V16.2121V16.2079V16.2036V16.2004V16.1961V16.1919V16.1876V16.1833V16.1791V16.1748V16.1716V16.1673V16.163V16.1588V16.1545V16.1502V16.146V16.1417V16.1385V16.1342V16.13V16.1257V16.1214V16.1171V16.1129V16.1097V16.1054V16.1011V16.0969V16.0926V16.0894V16.0851V16.0809V16.0766V16.0723V16.068V16.0648V16.0606V16.0563V16.052V16.0478V16.0435V16.0392V16.036V16.0318V16.0275V16.0232V16.0189V16.0157V16.0115V16.0072V16.0029V15.9987V15.9944V15.9912V15.9869V15.9827V15.9784V15.9741V15.9709V15.9666V15.9624V15.9581V15.9538V15.9506V15.9464V15.9421V15.9378V15.9346V15.9304V15.9261V15.9218V15.9175V15.9143V15.9101V15.9058V15.9015V15.8983V15.8941V15.8898V15.8855V15.8813V15.8781V15.8738V15.8695V15.8652V15.861V15.8578V15.8535V15.8492V15.845V15.8418V15.8375V15.8332V15.829V15.8258V15.8215V15.8172V15.8129V15.8097V15.8055V15.8012V15.7969V15.7937V15.7895V15.7852V15.7809V15.7777V15.7734V15.7692V15.7649V15.7617V15.7574V15.7532V15.75V15.7457V15.7414V15.7372V15.734V15.7297V15.7254V15.7211V15.7179V15.7137V15.7094V15.7062V15.7019V15.6977V15.6934V15.6902V15.6859V15.6817V15.6785V15.6742V15.6699V15.6656V15.6624V15.6582V15.6539V15.6507V15.6464V15.6422V15.6379V15.6347V15.6304V15.6272V15.6229V15.6187V15.6144V15.6112V15.6069V15.6027V15.5995V15.5952V15.5909V15.5877V15.5835V15.5792V15.576V15.5717V15.5674V15.5642V15.56V15.5557V15.5525V15.5482V15.544V15.5408V15.5365V15.5322V15.529V15.5247V15.5205V15.5173V15.513V15.5087V15.5055V15.5013V15.497V15.4938V15.4895V15.4853V15.4821V15.4778V15.4746V15.4703V15.466V15.4628V15.4586V15.4543V15.4511V15.4468V15.4436V15.4394V15.4351V15.4319V15.4276V15.4233V15.4201V15.4159V15.4127V15.4084V15.4041V15.4009V15.3967V15.3935V15.3892V15.3849V15.3817V15.3775V15.3742V15.37V15.3657V15.3625V15.3582V15.355V15.3508V15.3465V15.3433V15.339V15.3358H4V17.4663H5.06738ZM7.73582 12.6674H12.0053V11.6H7.73582V12.6674ZM14.6738 15.3358V17.4663H15.7412V17.462V17.4578V17.4524V17.4482V17.4439V17.4396V17.4354V17.4311V17.4258V17.4215V17.4172V17.4129V17.4087V17.4044V17.4001V17.3948V17.3905V17.3863V17.382V17.3777V17.3734V17.3681V17.3638V17.3596V17.3553V17.351V17.3468V17.3425V17.3382V17.3329V17.3286V17.3244V17.3201V17.3158V17.3115V17.3073V17.3019V17.2977V17.2934V17.2891V17.2849V17.2806V17.2763V17.272V17.2678V17.2624V17.2582V17.2539V17.2496V17.2454V17.2411V17.2368V17.2315V17.2272V17.2229V17.2187V17.2144V17.2101V17.2059V17.2016V17.1973V17.192V17.1877V17.1835V17.1792V17.1749V17.1706V17.1664V17.1621V17.1578V17.1536V17.1482V17.144V17.1397V17.1354V17.1312V17.1269V17.1226V17.1183V17.1141V17.1098V17.1045V17.1002V17.0959V17.0917V17.0874V17.0831V17.0789V17.0746V17.0703V17.066V17.0618V17.0575V17.0522V17.0479V17.0436V17.0394V17.0351V17.0308V17.0266V17.0223V17.018V17.0137V17.0095V17.0052V17.0009V16.9956V16.9913V16.9871V16.9828V16.9785V16.9742V16.97V16.9657V16.9614V16.9572V16.9529V16.9486V16.9444V16.9401V16.9358V16.9316V16.9262V16.923V16.9177V16.9134V16.9091V16.9049V16.9006V16.8963V16.8921V16.8878V16.8835V16.8793V16.875V16.8707V16.8664V16.8622V16.8579V16.8536V16.8494V16.8451V16.8408V16.8366V16.8323V16.828V16.8227V16.8184V16.8141V16.8099V16.8056V16.8013V16.7971V16.7928V16.7885V16.7843V16.78V16.7757V16.7714V16.7672V16.7629V16.7586V16.7544V16.7501V16.7458V16.7416V16.7373V16.733V16.7288V16.7245V16.7202V16.7159V16.7117V16.7074V16.7031V16.6989V16.6946V16.6903V16.6861V16.6818V16.6775V16.6732V16.669V16.6647V16.6604V16.6562V16.6519V16.6476V16.6434V16.6391V16.6348V16.6306V16.6263V16.622V16.6177V16.6135V16.6092V16.6049V16.6007V16.5964V16.5921V16.5879V16.5836V16.5804V16.5751V16.5708V16.5676V16.5633V16.559V16.5548V16.5505V16.5462V16.542V16.5377V16.5334V16.5292V16.5249V16.5206V16.5163V16.5121V16.5078V16.5035V16.4993V16.495V16.4907V16.4865V16.4822V16.4779V16.4747V16.4694V16.4662V16.4619V16.4576V16.4534V16.4491V16.4448V16.4406V16.4363V16.432V16.4278V16.4235V16.4192V16.4149V16.4107V16.4064V16.4032V16.3989V16.3947V16.3904V16.3861V16.3819V16.3776V16.3733V16.369V16.3648V16.3605V16.3562V16.352V16.3488V16.3445V16.3402V16.336V16.3317V16.3274V16.3231V16.3189V16.3146V16.3103V16.3071V16.3029V16.2986V16.2943V16.2901V16.2858V16.2815V16.2773V16.273V16.2698V16.2655V16.2612V16.257V16.2527V16.2484V16.2442V16.2399V16.2356V16.2324V16.2282V16.2239V16.2196V16.2153V16.2111V16.2068V16.2025V16.1993V16.1951V16.1908V16.1865V16.1823V16.178V16.1737V16.1705V16.1662V16.162V16.1577V16.1534V16.1492V16.1449V16.1406V16.1374V16.1332V16.1289V16.1246V16.1203V16.1161V16.1118V16.1086V16.1043V16.1001V16.0958V16.0915V16.0883V16.0841V16.0798V16.0755V16.0712V16.067V16.0638V16.0595V16.0552V16.051V16.0467V16.0424V16.0382V16.035V16.0307V16.0264V16.0221V16.0179V16.0147V16.0104V16.0061V16.0019V15.9976V15.9933V15.9901V15.9859V15.9816V15.9773V15.973V15.9698V15.9656V15.9613V15.957V15.9528V15.9496V15.9453V15.941V15.9368V15.9336V15.9293V15.925V15.9207V15.9165V15.9133V15.909V15.9047V15.9005V15.8973V15.893V15.8887V15.8845V15.8802V15.877V15.8727V15.8684V15.8642V15.8599V15.8567V15.8524V15.8482V15.8439V15.8407V15.8364V15.8322V15.8279V15.8247V15.8204V15.8161V15.8119V15.8087V15.8044V15.8001V15.7959V15.7927V15.7884V15.7841V15.7799V15.7767V15.7724V15.7681V15.7638V15.7606V15.7564V15.7521V15.7489V15.7446V15.7404V15.7361V15.7329V15.7286V15.7243V15.7201V15.7169V15.7126V15.7083V15.7051V15.7009V15.6966V15.6923V15.6891V15.6849V15.6806V15.6774V15.6731V15.6688V15.6646V15.6614V15.6571V15.6528V15.6496V15.6454V15.6411V15.6368V15.6336V15.6294V15.6262V15.6219V15.6176V15.6133V15.6101V15.6059V15.6016V15.5984V15.5941V15.5899V15.5867V15.5824V15.5781V15.5749V15.5706V15.5664V15.5632V15.5589V15.5546V15.5514V15.5472V15.5429V15.5397V15.5354V15.5312V15.528V15.5237V15.5194V15.5162V15.5119V15.5077V15.5045V15.5002V15.4959V15.4927V15.4885V15.4842V15.481V15.4767V15.4735V15.4692V15.465V15.4618V15.4575V15.4532V15.45V15.4458V15.4426V15.4383V15.434V15.4308V15.4266V15.4223V15.4191V15.4148V15.4116V15.4073V15.4031V15.3999V15.3956V15.3924V15.3881V15.3839V15.3807V15.3764V15.3732V15.3689V15.3646V15.3614V15.3572V15.354V15.3497V15.3454V15.3422V15.338V15.3348H14.6738V15.3358ZM12.0053 12.6674C12.7131 12.6674 13.3918 12.9485 13.8922 13.4489C14.3926 13.9494 14.6738 14.6281 14.6738 15.3358H15.7412C15.7412 14.345 15.3476 13.3948 14.647 12.6942C13.9464 11.9936 12.9961 11.6 12.0053 11.6V12.6674ZM5.06738 15.3358C5.06738 14.6281 5.34852 13.9494 5.84895 13.4489C6.34938 12.9485 7.02811 12.6674 7.73582 12.6674V11.6C6.74502 11.6 5.7948 11.9936 5.0942 12.6942C4.39359 13.3948 4 14.345 4 15.3358H5.06738Z" fill="#212224"/>
</svg>
