<svg width="20" height="20" viewBox="0 0 20 20" fill="none" xmlns="http://www.w3.org/2000/svg">
<path d="M9.71429 12.2857H10.8572V14.5714H9.71429V12.2857Z" fill="#212224"/>
<path d="M12.5714 11.1429H13.7143V14.5714H12.5714V11.1429Z" fill="#212224"/>
<path d="M6.85715 8.85715H8V14.5714H6.85715V8.85715Z" fill="#212224"/>
<path d="M15.4286 3.71429H13.7143V3.14286C13.7143 2.83975 13.5939 2.54906 13.3795 2.33474C13.1652 2.12041 12.8745 2 12.5714 2H8C7.6969 2 7.40621 2.12041 7.19188 2.33474C6.97755 2.54906 6.85714 2.83975 6.85714 3.14286V3.71429H5.14286C4.83975 3.71429 4.54906 3.83469 4.33474 4.04902C4.12041 4.26335 4 4.55404 4 4.85714V16.8571C4 17.1602 4.12041 17.4509 4.33474 17.6653C4.54906 17.8796 4.83975 18 5.14286 18H15.4286C15.7317 18 16.0224 17.8796 16.2367 17.6653C16.451 17.4509 16.5714 17.1602 16.5714 16.8571V4.85714C16.5714 4.55404 16.451 4.26335 16.2367 4.04902C16.0224 3.83469 15.7317 3.71429 15.4286 3.71429ZM8 3.14286H12.5714V5.42857H8V3.14286ZM15.4286 16.8571H5.14286V4.85714H6.85714V6.57143H13.7143V4.85714H15.4286V16.8571Z" fill="#212224"/>
</svg>
