<svg width="10" height="10" viewBox="0 0 10 10" fill="none" xmlns="http://www.w3.org/2000/svg">
<path d="M5.81629 4.97248L9.86629 0.922476C9.95731 0.816197 10.0049 0.679488 9.99946 0.539668C9.99406 0.399848 9.9361 0.267216 9.83716 0.168274C9.73822 0.0693328 9.60559 0.0113701 9.46577 0.00596948C9.32595 0.000568837 9.18924 0.048128 9.08296 0.139143L5.03296 4.18914L0.982958 0.133587C0.876679 0.0425723 0.73997 -0.00498632 0.60015 0.000414325C0.46033 0.00581497 0.327698 0.0637772 0.228756 0.162719C0.129815 0.26166 0.0718521 0.394293 0.0664515 0.534113C0.0610508 0.673933 0.10861 0.810642 0.199625 0.91692L4.24962 4.97248L0.194069 9.02248C0.135913 9.07228 0.088679 9.13357 0.0553327 9.20249C0.0219864 9.27142 0.00324719 9.34649 0.000291918 9.423C-0.00266336 9.49951 0.0102288 9.57581 0.0381591 9.6471C0.0660895 9.71839 0.108455 9.78314 0.162597 9.83728C0.216738 9.89142 0.281487 9.93379 0.352778 9.96172C0.42407 9.98965 0.500366 10.0025 0.576877 9.99959C0.653387 9.99663 0.728461 9.97789 0.797386 9.94455C0.866311 9.9112 0.927598 9.86397 0.977402 9.80581L5.03296 5.75581L9.08296 9.80581C9.18924 9.89682 9.32595 9.94438 9.46577 9.93898C9.60559 9.93358 9.73822 9.87562 9.83716 9.77668C9.9361 9.67774 9.99406 9.5451 9.99946 9.40528C10.0049 9.26546 9.95731 9.12876 9.86629 9.02248L5.81629 4.97248Z" fill="#999BA9"/>
</svg>
