<svg width="24" height="24" viewBox="0 0 24 24" fill="none" xmlns="http://www.w3.org/2000/svg">
<path d="M13.466 12.0001L19.6963 5.76975C20.1017 5.36449 20.1017 4.70924 19.6963 4.30398C19.291 3.89872 18.6357 3.89872 18.2305 4.30398L12.0001 10.5344L5.76987 4.30398C5.36441 3.89872 4.70935 3.89872 4.30409 4.30398C3.89864 4.70924 3.89864 5.36449 4.30409 5.76975L10.5343 12.0001L4.30409 18.2305C3.89864 18.6358 3.89864 19.2911 4.30409 19.6963C4.50606 19.8985 4.77161 20 5.03698 20C5.30234 20 5.56771 19.8985 5.76987 19.6963L12.0001 13.4659L18.2305 19.6963C18.4326 19.8985 18.698 20 18.9634 20C19.2287 20 19.4941 19.8985 19.6963 19.6963C20.1017 19.2911 20.1017 18.6358 19.6963 18.2305L13.466 12.0001Z" fill="#999BA9"/>
</svg>
