<svg width="24" height="24" viewBox="0 0 24 24" fill="none" xmlns="http://www.w3.org/2000/svg">
<path d="M21.7663 20.5889L16.7962 15.6188C18.1506 13.9623 18.8165 11.8486 18.6562 9.71494C18.4959 7.58125 17.5216 5.5908 15.9349 4.15531C14.3482 2.71981 12.2704 1.9491 10.1314 2.00258C7.99232 2.05606 5.95567 2.92965 4.44268 4.44265C2.92968 5.95565 2.05609 7.9923 2.00261 10.1313C1.94913 12.2704 2.71984 14.3481 4.15534 15.9348C5.59083 17.5216 7.58128 18.4958 9.71497 18.6562C11.8487 18.8165 13.9623 18.1506 15.6188 16.7962L20.5889 21.7662C20.7459 21.9179 20.9563 22.0018 21.1746 21.9999C21.3929 21.998 21.6017 21.9105 21.7561 21.7561C21.9105 21.6017 21.9981 21.3929 22 21.1746C22.0019 20.9562 21.9179 20.7459 21.7663 20.5889ZM10.3531 17.0143C9.03568 17.0143 7.74781 16.6236 6.65238 15.8917C5.55695 15.1598 4.70317 14.1194 4.199 12.9022C3.69483 11.6851 3.56292 10.3457 3.81994 9.05358C4.07697 7.76143 4.71138 6.57452 5.64297 5.64294C6.57455 4.71135 7.76146 4.07694 9.05361 3.81991C10.3458 3.56289 11.6851 3.6948 12.9023 4.19897C14.1194 4.70314 15.1598 5.55692 15.8917 6.65235C16.6237 7.74778 17.0143 9.03565 17.0143 10.3531C17.0124 12.1192 16.3099 13.8123 15.0611 15.0611C13.8123 16.3099 12.1192 17.0123 10.3531 17.0143Z" fill="#999BA9"/>
</svg>
