<svg width="142" height="40" viewBox="0 0 142 40" fill="none" xmlns="http://www.w3.org/2000/svg">
<g clip-path="url(#clip0_51_850)">
<path d="M25.2443 6.92444C23.7138 7.11574 22.4385 6.58433 21.2481 5.13889C19.6326 3.18331 17.1244 2.69441 15.2538 4.33115C15.4664 3.33211 15.8703 2.37557 16.763 1.39778C18.4847 -0.451525 21.3757 -0.536551 22.9061 1.56782L24.3728 3.56593C25.2443 4.75628 26.4772 5.58528 27.8375 5.98915C27.2211 6.39302 26.3284 6.79689 25.2443 6.92444Z" fill="#212224"/>
<path d="M17.6769 4.88382C16.5079 4.86256 15.4664 5.69156 14.9774 6.92443C14.5735 7.98725 14.5098 9.11383 14.5098 9.5177C15.5301 7.8172 17.5707 7.8172 19.0161 8.96505C19.7813 9.56022 20.7804 10.0704 21.8645 9.90033C22.9486 9.73027 23.7138 8.96505 24.3302 8.30609C22.4172 8.24233 21.2693 7.47709 20.1852 6.26548C19.5051 5.50026 18.7824 4.90508 17.6769 4.88382Z" fill="#212224"/>
<path d="M20.4617 12.9187C19.8665 13.2588 19.0587 13.2588 18.0171 12.8337C17.0606 12.4298 16.0191 12.7061 15.4026 13.599C15.1475 12.9612 14.9987 12.0472 15.2113 11.2394C15.4877 10.2404 16.3592 9.83653 16.9118 9.79402C17.6868 9.71932 18.2363 10.0794 18.825 10.4653C19.5764 10.9578 20.3918 11.4923 21.822 11.2182C21.5245 11.941 21.078 12.5786 20.4617 12.9187Z" fill="#212224"/>
<path d="M12.8942 17.0424C13.8721 16.4899 14.3822 15.8734 14.4884 15.1932C14.5948 14.4917 14.3822 13.7477 13.9996 13.0675C13.3204 14.3543 12.3942 14.6594 11.539 14.941C10.8686 15.1619 10.2418 15.3683 9.81207 16.0222C9.51448 16.4686 9.25941 17.4252 9.87585 18.2541C10.386 18.913 11.1725 19.3807 11.8314 19.572C11.5551 18.5304 11.9802 17.5314 12.8942 17.0424Z" fill="#212224"/>
<path d="M6.47486 12.3448C5.73088 13.2377 5.73088 14.5767 6.38983 15.7246C6.96375 16.7024 7.81401 17.4464 8.13284 17.7014C7.45264 15.8521 8.70677 14.2579 10.5136 13.8328C11.4488 13.6202 12.4691 13.1526 13.0218 12.196C13.5532 11.2395 13.4469 10.1554 13.2982 9.28394C12.0441 10.7294 10.7474 11.1545 9.11064 11.2608C8.09034 11.3245 7.17631 11.4946 6.47486 12.3448Z" fill="#212224"/>
<path d="M8.89811 9.7303C10.7687 9.70904 11.9803 9.0501 12.788 7.71095C13.3619 6.77566 13.5958 5.84038 13.6808 5.11768C12.5117 5.94666 11.0875 6.37179 9.64209 6.30803L7.17635 6.20175C4.56182 6.09546 2.8188 8.41241 3.20141 10.8994C3.39271 12.196 3.90287 13.11 4.56182 13.9178C4.41302 11.4096 6.38987 9.75156 8.89811 9.7303Z" fill="#212224"/>
<path d="M13.0006 23.6531C13.1919 22.5479 13.0217 21.7614 12.5541 21.2511C12.0864 20.741 11.3638 20.4222 10.5985 20.2947C11.1832 21.6309 10.8436 22.5454 10.5309 23.3874C10.2865 24.0455 10.0585 24.6595 10.301 25.3962C10.471 25.9063 11.0449 26.6928 12.0864 26.7353C12.9155 26.7566 13.7657 26.4164 14.3396 26.0126C13.3194 25.6513 12.8304 24.6947 13.0006 23.6531Z" fill="#212224"/>
<path d="M5.32702 25.7575C5.56084 26.9054 6.60241 27.7343 7.9203 27.9256C9.04688 28.0957 10.1522 27.8832 10.5561 27.7981C8.68552 27.1817 8.21789 25.2049 9.00437 23.5256C9.4295 22.6541 9.68457 21.57 9.2807 20.5497C8.85557 19.5294 7.96281 18.9555 7.17632 18.5092C7.53768 20.3796 7.04878 21.6763 6.1135 23.0155C5.53958 23.8444 5.11445 24.6735 5.32702 25.7575Z" fill="#212224"/>
<path d="M4.79562 22.229C5.94347 20.741 6.17728 19.3807 5.64587 17.9352C5.26326 16.9149 4.68934 16.1285 4.15793 15.6182C4.07291 17.0425 3.52023 18.4241 2.56371 19.5294L0.94822 21.4C-0.75229 23.3768 -0.0508297 26.1614 2.13858 27.4368C3.28642 28.0958 4.30673 28.287 5.34828 28.2658C3.32893 26.7992 3.24391 24.227 4.79562 22.229Z" fill="#212224"/>
<path d="M18.2509 27.7132C17.5069 26.8629 16.7842 26.5228 16.104 26.5653C15.4026 26.6078 14.701 26.9905 14.1484 27.5006C15.55 27.8807 16.0489 28.7121 16.5093 29.4793C16.8729 30.085 17.2124 30.6508 17.9533 30.9228C18.4635 31.1141 19.4413 31.1567 20.1002 30.3489C20.6316 29.7113 20.908 28.8398 20.9291 28.1382C19.994 28.6909 18.9311 28.4996 18.2509 27.7132Z" fill="#212224"/>
<path d="M15.1049 35.0041C16.1466 35.5355 17.4432 35.2379 18.4209 34.3239C19.25 33.5374 19.7814 32.5597 19.9727 32.1982C18.3147 33.2824 16.4866 32.4108 15.6789 30.7528C15.2538 29.8813 14.5735 28.9885 13.532 28.6909C12.4692 28.3721 11.4489 28.7334 10.6199 29.0735C12.2992 29.9664 13.0219 31.1567 13.4682 32.7084C13.7446 33.6649 14.1272 34.5152 15.1049 35.0041Z" fill="#212224"/>
<path d="M12.0228 33.2397C11.5764 31.4117 10.6624 30.3914 9.19568 29.8813C8.15412 29.5412 7.19758 29.4987 6.45361 29.5837C7.51642 30.5402 8.23914 31.8156 8.51548 33.261L8.96186 35.7055C9.42951 38.2775 12.0653 39.4467 14.4247 38.5327C15.6576 38.0437 16.4441 37.3635 17.0606 36.5346C14.6586 37.236 12.618 35.6843 12.0228 33.2397Z" fill="#212224"/>
<path d="M24.6915 26.1401C23.5649 26.2039 22.8422 26.544 22.4596 27.1179C22.0557 27.6919 21.9282 28.4784 21.9707 29.2436C23.1356 28.3759 24.101 28.5052 24.9898 28.6243C25.6903 28.7181 26.3431 28.8056 27.0084 28.3933C27.4761 28.117 28.1137 27.3731 27.9011 26.3527C27.7311 25.545 27.221 24.7798 26.7108 24.3334C26.5408 25.375 25.733 26.0764 24.6915 26.1401Z" fill="#212224"/>
<path d="M28.4327 33.1547C29.4955 32.6659 30.0694 31.4755 29.9632 30.1363C29.8781 29.0097 29.4317 27.9682 29.2617 27.5855C29.0705 29.5625 27.2423 30.4552 25.4568 30.03C24.5215 29.8175 23.3949 29.7962 22.5022 30.4339C21.5882 31.0716 21.2481 32.0707 20.993 32.9421C22.736 32.1769 24.1176 32.3682 25.6269 32.9847C26.5409 33.3673 27.4336 33.6012 28.4327 33.1547Z" fill="#212224"/>
<path d="M25.1168 34.4514C23.4163 33.6649 22.0346 33.7287 20.7379 34.5789C19.8239 35.1741 19.1863 35.9181 18.8036 36.5344C20.2065 36.3007 21.6732 36.5344 22.9698 37.2147L25.1592 38.3837C27.455 39.6167 30.027 38.2988 30.771 35.8755C31.1536 34.6214 31.1111 33.5799 30.8559 32.5595C29.8995 34.8764 27.4124 35.5142 25.1168 34.4514Z" fill="#212224"/>
<path d="M27.4763 20.1246C26.8172 21.0387 26.6472 21.8252 26.8385 22.4841C27.0511 23.1643 27.5612 23.7382 28.199 24.1846C28.2466 22.7302 28.9495 22.0581 29.5989 21.437C30.1075 20.9507 30.5832 20.4956 30.6859 19.7208C30.7497 19.1894 30.5797 18.2328 29.6656 17.7439C28.9217 17.3613 28.0077 17.2975 27.3275 17.425C28.0289 18.1903 28.0715 19.2743 27.4763 20.1246Z" fill="#212224"/>
<path d="M35.2773 21.57C35.5536 20.4434 34.9797 19.2319 33.8744 18.4879C32.9391 17.8502 31.855 17.5526 31.4511 17.4464C32.8753 18.828 32.429 20.8048 30.9835 21.9527C30.2396 22.5479 29.5169 23.4193 29.453 24.5034C29.3892 25.6087 29.9632 26.5228 30.4733 27.2667C30.9623 25.4174 31.9613 24.4609 33.3855 23.6745C34.2783 23.1855 35.0222 22.6328 35.2773 21.57Z" fill="#212224"/>
<path d="M34.2356 24.9711C32.5563 25.8001 31.7487 26.9267 31.5998 28.4785C31.4935 29.5625 31.6849 30.5191 31.9187 31.1992C32.6201 29.9451 33.7042 28.946 35.0434 28.3721L37.3177 27.3944C39.7197 26.374 40.2724 23.5257 38.8482 21.4426C38.1043 20.3585 37.254 19.742 36.3188 19.317C37.5516 21.5064 36.5101 23.8446 34.2356 24.9711Z" fill="#212224"/>
<path d="M24.5002 14.1941C24.8191 15.2781 25.308 15.8946 25.9457 16.1497C26.6047 16.4047 27.3911 16.3622 28.1138 16.1497C27.0048 15.1957 26.9194 14.2282 26.8403 13.3338C26.7785 12.6339 26.7207 11.9787 26.1795 11.4095C25.7969 11.0269 24.9467 10.5593 23.9901 10.9844C23.2249 11.3245 22.6084 12.0047 22.2683 12.5999C23.3524 12.5574 24.224 13.1951 24.5002 14.1941Z" fill="#212224"/>
<path d="M30.4945 8.98627C29.793 8.05099 28.4751 7.7534 27.221 8.15727C26.1369 8.49738 25.2229 9.15633 24.9041 9.4114C26.8596 9.15633 28.135 10.7293 28.135 12.5786C28.135 13.5352 28.3689 14.6405 29.1765 15.3845C30.0056 16.1285 31.0684 16.256 31.9611 16.2985C30.8345 14.768 30.707 13.3863 30.9621 11.7708C31.1535 10.7931 31.1746 9.85779 30.4945 8.98627Z" fill="#212224"/>
<path d="M32.5139 11.9198C32.11 13.7478 32.4926 15.087 33.598 16.171C34.3845 16.9363 35.2347 17.3826 35.9361 17.6165C35.4047 16.2986 35.2985 14.8106 35.681 13.4077L36.34 11.027C37.0202 8.51873 35.1709 6.30807 32.6414 6.11676C31.3235 6.01047 30.3245 6.30807 29.3892 6.77571C31.8762 7.17958 33.0453 9.45402 32.5139 11.9198Z" fill="#212224"/>
<path d="M81.9562 7.72956H83.4654V11.8958C83.4654 14.2127 82.3601 15.4031 80.1707 15.4031H60.5297C58.0641 15.4031 56.9375 14.3828 56.9375 12.2359V3.62708H58.4467V12.1508C58.4467 13.3625 59.1269 13.9152 60.5935 13.9152H73.1561V13.8939C73.4324 12.491 73.4324 10.8117 72.5396 9.91896C71.7956 9.19625 70.9242 9.06871 69.585 9.08997C68.9473 9.08997 68.1608 9.23876 67.2043 9.51509L66.8429 8.04841C67.8207 7.68704 69.2874 7.53825 69.8401 7.53825C71.6681 7.53825 72.7947 7.89961 73.73 8.79237C74.5802 9.57886 75.4306 10.8117 75.0054 13.8726V13.9152H80.0219C81.4461 13.9152 81.9562 13.32 81.9562 11.6407V7.72956Z" fill="#212224"/>
<path d="M81.0634 5.9653C81.6586 5.9653 82.1263 5.49765 82.1263 4.92373C82.1263 4.32855 81.6374 3.83966 81.0634 3.83966C80.4683 3.83966 80.0007 4.32855 80.0007 4.92373C80.0007 5.49765 80.4896 5.9653 81.0634 5.9653Z" fill="#212224"/>
<path d="M84.996 4.92373C84.996 5.49765 84.5284 5.9653 83.9332 5.9653C83.338 5.9653 82.8704 5.49765 82.8704 4.92373C82.8704 4.32855 83.3592 3.83966 83.9332 3.83966C84.5071 3.83966 84.996 4.32855 84.996 4.92373Z" fill="#212224"/>
<path d="M134.608 4.92373C134.608 5.49765 134.141 5.9653 133.546 5.9653C132.951 5.9653 132.482 5.49765 132.482 4.92373C132.482 4.32855 132.951 3.83966 133.546 3.83966C134.119 3.83966 134.608 4.32855 134.608 4.92373Z" fill="#212224"/>
<path d="M118.453 8.81363V8.83488H120.112V9.79143H116.562V8.81363H117.412L117.391 8.77112C117.242 8.49478 117.157 8.17593 117.157 7.87834C117.157 6.90056 117.944 6.1991 119.006 6.1991C119.354 6.1991 119.644 6.27811 119.873 6.34092L119.899 6.34788L119.728 7.26191H119.707C119.58 7.2194 119.325 7.15563 119.048 7.15563C118.708 7.15563 118.134 7.26191 118.134 7.94212C118.134 8.23971 118.262 8.57981 118.453 8.81363Z" fill="#212224"/>
<path d="M137.074 16.5934C137.648 16.5934 138.137 17.0823 138.137 17.6775C138.137 18.2727 137.648 18.719 137.074 18.719C136.5 18.719 136.011 18.2514 136.011 17.6775C136.011 17.0823 136.5 16.5934 137.074 16.5934Z" fill="#212224"/>
<path d="M49.9442 8.8136L50.9219 7.53821C52.7712 8.53725 54.0253 9.62134 54.748 10.9392C55.4283 12.1934 55.5133 13.2349 55.5133 14.1915V15.3819H47.2871V13.9151H53.9191C53.9191 11.917 52.6012 10.2803 49.9442 8.8136Z" fill="#212224"/>
<path d="M96.8144 11.6832C96.8144 13.2774 96.198 13.9152 94.7101 13.9152H93.6047V5.58266H92.0955V13.9152H85.506V15.4031H94.8801C97.0695 15.4031 98.3236 14.2127 98.3236 12.1084V3.62708H96.8144V11.6832Z" fill="#212224"/>
<path d="M103.043 3.62708H101.533V15.3819H103.043V3.62708Z" fill="#212224"/>
<path d="M77.8538 27.1579L74.7079 30.5801V23.0341H73.1986V34.8101H74.7079V31.4091L77.8325 34.8101H79.7669L76.2808 30.984L79.7669 27.1579H77.8538Z" fill="#212224"/>
<path fill-rule="evenodd" clip-rule="evenodd" d="M53.0688 28.8797C53.9404 28.6458 54.9181 27.8593 54.9181 26.3288C54.9181 25.7761 54.7481 23.0554 51.3259 23.0554H47.3083V34.8101H51.4108C54.0679 34.8101 55.0032 33.0246 55.0032 31.4941C55.0032 29.8361 53.8341 29.0921 53.0688 28.8797ZM48.8813 24.4795H51.3259C52.8138 24.4795 53.3452 25.4786 53.3452 26.3288C53.3452 26.5201 53.2814 28.1569 51.3684 28.1569H48.8813V24.4795ZM51.4108 33.386H48.8813V29.6024H51.4534C53.0264 29.6024 53.4302 30.8565 53.4302 31.5154C53.4089 32.1957 52.9839 33.386 51.4108 33.386Z" fill="#212224"/>
<path fill-rule="evenodd" clip-rule="evenodd" d="M62.2303 28.3694C61.6989 27.4767 60.6999 26.9453 59.5308 26.9453C58.468 26.9453 57.4901 27.3704 56.7674 28.1357C56.066 28.9008 55.6621 29.8999 55.6621 30.9627C55.6621 33.2159 57.3414 34.9803 59.5095 34.9803C60.6786 34.9803 61.6989 34.4488 62.2303 33.556V34.789H63.7183V27.1366H62.2303V28.3694ZM59.7008 33.6198C58.2341 33.6198 57.1713 32.5145 57.1713 30.984C57.1713 30.2613 57.4052 29.6024 57.8515 29.1134C58.3192 28.6033 58.9568 28.327 59.7008 28.327C60.4235 28.327 61.0825 28.6033 61.5501 29.1134C61.9965 29.6024 62.2303 30.2613 62.2303 30.984C62.2303 32.5145 61.1675 33.6198 59.7008 33.6198Z" fill="#212224"/>
<path d="M69.2025 26.9666C67.9908 26.9666 67.0555 27.4767 66.5454 28.412V27.1579H65.0361V34.8101H66.5454V30.8777C66.5454 28.9859 67.6932 28.3057 68.6923 28.3057C69.5426 28.3057 70.5628 28.7308 70.5628 30.7501V34.8101H72.072V30.3038C72.072 29.241 71.902 28.5396 71.4768 27.9868C70.988 27.3066 70.2015 26.9666 69.2025 26.9666Z" fill="#212224"/>
<path fill-rule="evenodd" clip-rule="evenodd" d="M89.2683 28.3694C88.7369 27.4767 87.7378 26.9453 86.5688 26.9453C85.506 26.9453 84.5282 27.3704 83.8055 28.1357C83.104 28.9008 82.7001 29.8999 82.7001 30.9627C82.7001 33.2159 84.3794 34.9803 86.5475 34.9803C87.7167 34.9803 88.7369 34.4488 89.2683 33.556V34.789H90.7563V27.1366H89.2683V28.3694ZM86.7389 33.6198C85.2722 33.6198 84.2094 32.5145 84.2094 30.984C84.2094 30.2613 84.4431 29.6024 84.8895 29.1134C85.3571 28.6033 85.9949 28.327 86.7389 28.327C87.4616 28.327 88.1206 28.6033 88.5882 29.1134C89.0346 29.6024 89.2683 30.2613 89.2683 30.984C89.2683 32.5145 88.2055 33.6198 86.7389 33.6198Z" fill="#212224"/>
<path d="M93.5409 23.0341H92.0317V34.7888H93.5409V23.0341Z" fill="#212224"/>
<path d="M98.7275 34.8101H105.36V33.386H100.322V29.6661H105.36V28.2419H100.322V24.4795H105.36V23.0341H98.7275V34.8101Z" fill="#212224"/>
<path d="M110.419 33.5348C109.738 33.5348 109.186 33.4073 109.186 31.9193V28.4545H111.163V27.1792H109.186V24.6284H107.677V27.1792H106.274V28.4545H107.677V32.2381C107.677 33.3435 107.974 34.1087 108.527 34.5339C109.016 34.8952 109.611 34.9378 110.079 34.9378C110.589 34.9378 111.12 34.8952 111.396 34.8314H111.418V33.4922H111.375C111.29 33.4922 111.15 33.5007 110.995 33.51C110.801 33.5217 110.584 33.5348 110.419 33.5348Z" fill="#212224"/>
<path d="M113.479 23.2467C112.884 23.2467 112.417 23.7356 112.417 24.3308C112.417 24.9047 112.906 25.3724 113.479 25.3724C114.075 25.3724 114.542 24.9047 114.542 24.3308C114.542 23.7356 114.075 23.2467 113.479 23.2467Z" fill="#212224"/>
<path d="M114.223 34.8101V27.1579H112.735V34.8101H114.223Z" fill="#212224"/>
<path d="M120.281 26.9666C119.069 26.9666 118.134 27.4767 117.624 28.412V23.0554H116.115V34.8101H117.624V30.8777C117.624 28.9859 118.772 28.3057 119.772 28.3057C120.621 28.3057 121.642 28.7308 121.642 30.7501V34.8101H123.151V30.3038C123.151 29.241 122.981 28.5395 122.556 27.9868C122.067 27.3066 121.28 26.9666 120.281 26.9666Z" fill="#212224"/>
<path fill-rule="evenodd" clip-rule="evenodd" d="M130.591 28.3694C130.059 27.4767 129.06 26.9453 127.892 26.9453C126.828 26.9453 125.851 27.3704 125.128 28.1357C124.426 28.9008 124.022 29.8999 124.022 30.9627C124.022 33.2159 125.702 34.9803 127.869 34.9803C129.039 34.9803 130.059 34.4488 130.591 33.556V34.789H132.079V27.1366H130.591V28.3694ZM128.061 33.6198C126.594 33.6198 125.532 32.5145 125.532 30.984C125.532 30.2613 125.766 29.6024 126.212 29.1134C126.68 28.6033 127.318 28.327 128.061 28.327C128.784 28.327 129.442 28.6033 129.911 29.1134C130.356 29.6024 130.591 30.2613 130.591 30.984C130.591 32.5145 129.528 33.6198 128.061 33.6198Z" fill="#212224"/>
<path fill-rule="evenodd" clip-rule="evenodd" d="M139.688 28.3694C139.158 27.4767 138.158 26.9453 136.989 26.9453C135.926 26.9453 134.948 27.3704 134.226 28.1356C133.525 28.9008 133.12 29.8999 133.12 30.9627C133.12 33.2159 134.8 34.9802 136.968 34.9802C138.136 34.9802 139.158 34.4488 139.688 33.556V34.7888H141.176V23.0341H139.688V28.3694ZM137.159 33.6198C135.692 33.6198 134.629 32.5145 134.629 30.984C134.629 30.2613 134.864 29.6024 135.309 29.1134C135.778 28.6033 136.415 28.3269 137.159 28.3269C137.904 28.3269 138.541 28.6033 139.008 29.1134C139.455 29.6024 139.688 30.2613 139.688 30.984C139.688 32.5145 138.626 33.6198 137.159 33.6198Z" fill="#212224"/>
<path d="M139.688 7.72956V11.4707C139.688 13.1712 138.816 13.8939 136.989 13.8939C135.14 13.8939 134.289 13.0224 134.289 11.4707V7.72956H132.78V11.4707C132.78 13.1712 131.908 13.8939 130.081 13.8939C128.232 13.8939 127.402 13.0437 127.381 11.4919V3.62708H125.872V11.6407C125.872 13.32 125.574 13.9152 123.938 13.9152H112.565C110.907 13.9152 109.823 12.8948 109.823 11.3431C109.823 10.7692 109.951 9.94022 110.206 8.96243L108.782 8.57982C108.548 9.2175 108.208 10.5992 108.208 11.6195C108.208 13.8514 109.887 15.4031 112.31 15.4031H123.916C125.384 15.4031 126.34 15.0205 126.892 14.2978C127.402 14.9354 128.422 15.4031 130.038 15.4031C131.802 15.4031 132.951 14.9354 133.609 14.0639L133.694 14.1915C134.184 14.8717 135.225 15.4031 136.925 15.4031C139.859 15.4031 141.113 14.1277 141.113 11.8107V7.72956H139.688Z" fill="#212224"/>
</g>
<defs>
<clipPath id="clip0_51_850">
<rect width="141.176" height="40" fill="white"/>
</clipPath>
</defs>
</svg>
