<svg width="24" height="24" viewBox="0 0 24 24" fill="none" xmlns="http://www.w3.org/2000/svg">
<path d="M19.5 10C19.1022 10 18.7206 10.158 18.4393 10.4393C18.158 10.7206 18 11.1022 18 11.5C18 11.8978 18.158 12.2794 18.4393 12.5607C18.7206 12.842 19.1022 13 19.5 13C19.8978 13 20.2794 12.842 20.5607 12.5607C20.842 12.2794 21 11.8978 21 11.5C21 11.1022 20.842 10.7206 20.5607 10.4393C20.2794 10.158 19.8978 10 19.5 10ZM12 10C11.6022 10 11.2206 10.158 10.9393 10.4393C10.658 10.7206 10.5 11.1022 10.5 11.5C10.5 11.8978 10.658 12.2794 10.9393 12.5607C11.2206 12.842 11.6022 13 12 13C12.3978 13 12.7794 12.842 13.0607 12.5607C13.342 12.2794 13.5 11.8978 13.5 11.5C13.5 11.1022 13.342 10.7206 13.0607 10.4393C12.7794 10.158 12.3978 10 12 10ZM4.5 10C4.10217 10 3.72064 10.158 3.43934 10.4393C3.15804 10.7206 3 11.1022 3 11.5C3 11.8978 3.15804 12.2794 3.43934 12.5607C3.72064 12.842 4.10217 13 4.5 13C4.89783 13 5.27936 12.842 5.56066 12.5607C5.84196 12.2794 6 11.8978 6 11.5C6 11.1022 5.84196 10.7206 5.56066 10.4393C5.27936 10.158 4.89783 10 4.5 10Z" fill="#999BA9"/>
</svg>
